<?xml version="1.0" encoding="UTF-8"?><svg id="Layer_2" xmlns="http://www.w3.org/2000/svg" viewBox="0 0 290.91 318.97"><g id="Layer_1-2"><g><path d="M145.5,111.14c40.22,0,80.44,0,120.66,.02,1.41,0,2.87,.03,4.23,.38,3.44,.88,5.22,3.73,4.86,7.43-.32,3.29-2.86,5.62-6.36,5.82-.3,.02-.61,0-.92,.01-2.44,.09-2.48,.09-2.48,2.59-.02,8.55,0,17.11,0,25.66,0,23.83,0,47.65,0,71.48,0,.81,.06,1.63,0,2.44-.12,1.52,.45,2.25,2.06,2.27,1.1,.01,2.25,.16,3.3,.5,3.08,.99,4.66,3.64,4.42,7.17-.21,3-2.22,5.29-5.3,5.83-1.39,.24-2.83,.3-4.25,.3-80.03,.01-160.06,.01-240.09,0-1.42,0-2.85-.06-4.26-.25-3.48-.46-5.97-3.29-5.94-6.65,.02-3.22,2.42-6.02,5.68-6.61q4.05-.74,4.05-4.85c0-31.87,0-63.74,0-95.61,0-.51,0-1.02,0-1.53q-.06-2.6-2.71-2.75c-4.06-.22-6.96-2.95-7.02-6.6-.06-3.68,2.72-6.61,6.7-7.01,1.01-.1,2.03-.04,3.05-.04,40.12,0,80.23,0,120.35,0Zm-25.18,66c0-16.49,0-32.97,0-49.46,0-2.86-.03-2.89-2.8-2.89-12.82-.01-25.65,0-38.47,0-3.09,0-3.12,.02-3.12,3.24,0,32.57,0,65.13,0,97.7,0,3.45,.02,3.47,3.62,3.48,12.42,0,24.83,0,37.25,0,3.5,0,3.51-.02,3.51-3.52,0-16.18,0-32.36,0-48.54Zm94.71-.19c0-16.4,0-32.79,0-49.19,0-2.96-.02-2.98-3.02-2.98-12.73,0-25.46,0-38.19,0-3.08,0-3.09,.02-3.09,3.23,0,32.59,0,65.17,0,97.76,0,3.39,.02,3.42,3.34,3.43,12.53,.01,25.05,0,37.58,0,3.36,0,3.38-.03,3.38-3.37,0-16.29,0-32.59,0-48.88Zm-175.02-.1c0,16.39,0,32.79,0,49.18,0,3.1,.03,3.13,2.97,3.16,4.89,.05,9.77,.11,14.66,.08,3.39-.02,3.41-.09,3.41-3.39,0-13.54,0-27.09,0-40.63,0-19.14,0-38.29,0-57.43,0-3.02-.02-3.03-2.96-3.04-4.99-.01-9.98-.01-14.97,0-3.1,0-3.11,.02-3.11,3.19,0,16.29,0,32.58,0,48.88Zm115.8,.17v-7.02c0-13.94,0-27.87,0-41.81,0-3.84,.1-3.4-3.52-3.41-4.68-.02-9.36-.01-14.04,0-3.16,0-3.16,.02-3.2,3.22,0,.41,0,.81,0,1.22,0,31.74,0,63.47,0,95.21,0,.71-.02,1.43,.01,2.14,.11,2.36,.27,2.59,2.69,2.61,4.88,.05,9.76,.03,14.65,.01,3.38-.01,3.4-.03,3.4-3.35,0-16.27,0-32.55,0-48.82Zm94.79,.14c0-1.83,0-3.66,0-5.5,0-14.66,0-29.32,0-43.97,0-2.87-.04-2.9-2.84-2.91-4.99-.02-9.98-.02-14.96,0-2.83,.01-2.83,.03-2.88,2.87,0,.31,0,.61,0,.92,0,32.17,0,64.33,0,96.5,0,.71,.03,1.43,.02,2.14-.02,1.21,.44,1.96,1.76,1.96,5.7,0,11.4,0,17.1,0,1.29,0,1.82-.69,1.8-1.92-.01-.81,.02-1.63,.02-2.44,0-15.88,0-31.76,0-47.64Z"/><path d="M145.55,102.14H9.92c-.41,0-.81,0-1.22,0-4.57-.02-7.32-1.84-8.44-5.55-.86-2.87,.35-6.81,4.05-9.02,6.38-3.81,12.57-7.92,18.85-11.88,28.65-18.1,57.31-36.2,85.96-54.3,10.41-6.58,20.87-13.09,31.23-19.73,3.52-2.26,6.72-2.16,10.22,.06,20.45,12.98,40.95,25.89,61.43,38.82,23.49,14.83,46.99,29.66,70.48,44.5,1.72,1.09,3.48,2.12,5.11,3.34,3.03,2.27,3.96,5.24,2.87,8.6-1.05,3.23-3.71,5.08-7.46,5.17-1.02,.02-2.04,0-3.05,0-44.8,0-89.6,0-134.4,0Zm.31-15.29c18.73,0,37.46,0,56.2,0,17,0,34,0,51-.01,.99,0,1.98-.04,2.98-.06-.84-.66-1.63-1.41-2.53-1.98-16.5-10.46-33.02-20.91-49.53-31.35-18.67-11.8-37.35-23.56-55.98-35.43-1.9-1.21-3.21-1.22-5.14,.02-14.65,9.39-29.38,18.64-44.1,27.93-20.39,12.88-40.79,25.75-61.17,38.63-.84,.53-1.58,1.2-2.36,1.81,1.04,.14,2.09,.41,3.13,.41,35.84,.02,71.67,.02,107.51,.02Z"/><path d="M145.31,318.96c-43.99,0-87.98,0-131.96,0-1.52,0-3.07,.02-4.56-.22-3.99-.62-6.1-3-6.23-7.04-.1-3.05-.02-6.11-.02-9.16,0-7.23-.02-14.46,0-21.69,.02-5.27,2.18-7.62,7.41-8.15,1.11-.11,2.24-.09,3.36-.09,87.87,0,175.75,0,263.62,0,1.83,0,3.67,.06,5.48,.31,3.36,.46,5.19,2.35,5.75,5.75,.18,1.1,.25,2.23,.25,3.34,.02,9.06,.01,18.12,0,27.19,0,.91-.02,1.83-.12,2.74-.5,4.48-2.82,6.68-7.35,6.99-1.01,.07-2.04,.03-3.05,.03-44.19,0-88.38,0-132.58,0Zm.24-13.65c41.45,0,82.89,0,124.34,0,.92,0,1.84-.07,2.75,.01,1.68,.16,2.35-.45,2.31-2.22-.1-4.07,0-8.15-.04-12.22-.05-4.42,.9-4.45-4.43-4.45-83.2,0-166.4,0-249.6,0-.81,0-1.63,.05-2.44,0-1.7-.11-2.35,.63-2.32,2.34,.07,4.28,.01,8.55,.03,12.83,.01,4.23-.24,3.7,3.84,3.7,41.85,.01,83.71,0,125.56,0Z"/><path d="M145.52,250.6c39.81,0,79.62,0,119.42,.01,1.83,0,3.7,0,5.46,.39,1.85,.42,3.77,1.03,5.33,2.06,3.45,2.26,3.47,6.59,.03,8.89-1.55,1.04-3.48,1.68-5.33,2.05-2.07,.41-4.25,.41-6.38,.41-79.21,.02-158.42,.02-237.63,0-2.03,0-4.13,.05-6.07-.42-2.02-.5-4.11-1.29-5.76-2.52-2.63-1.96-2.76-5.61-.22-7.68,1.65-1.34,3.85-2.2,5.95-2.75,1.93-.51,4.04-.42,6.07-.42,39.71-.02,79.41-.02,119.12-.02Z"/><path d="M142.35,61.32c1.16-3.87-.74-6.26-5.07-8.51-8.63-4.49-10.46-14.19-4.82-21.44,2.02-2.6,4.72-4.17,7.83-4.99,1.35-.36,2.01-.82,2.16-2.36,.19-2.07,1.47-3.08,3.16-2.98,1.79,.12,2.9,1.19,2.93,2.91,.03,1.7,.93,2.24,2.31,2.66,3.61,1.1,6.53,3.25,8.89,6.16,.63,.78,1.18,1.68,1.52,2.61,.64,1.73-.21,3.91-1.71,4.8-1.62,.97-3.47,.59-4.95-.9-1.35-1.35-2.72-2.71-4.21-3.89-1.02-.8-1.72-.28-1.72,.99-.01,3.66,.01,7.32-.02,10.98,0,1.24,.75,1.66,1.74,2.17,2.07,1.06,4.24,2.09,5.99,3.57,8.31,7.02,6.32,19.71-3.66,24.01-.65,.28-1.33,.51-2,.73-1.22,.39-2,.92-2.2,2.46-.28,2.13-1.53,3.06-3.22,2.91-1.79-.15-2.86-1.23-2.86-2.97,0-1.76-1.04-2.14-2.39-2.6-3.97-1.34-7.27-3.66-9.46-7.29-.59-.98-.97-2.28-.93-3.42,.05-1.59,.98-2.92,2.61-3.4,1.61-.48,2.93,.05,4.07,1.34,1.19,1.36,2.44,2.73,3.88,3.79,1.59,1.17,2.06,.86,2.12-1.06,.06-1.83,.01-3.66,.01-6.29Zm0-20.74h.01c0-1.52-.04-3.05,.01-4.57,.05-1.54-.8-1.43-1.73-.94-2.13,1.13-3.33,2.96-3.47,5.36-.11,2.03,1.81,4.45,3.94,5.37,1.11,.47,1.22-.13,1.22-.95,0-1.42,0-2.84,0-4.27Zm6.3,22.97h.02c0,1.52-.02,3.04,0,4.55,.02,1.31,.66,1.52,1.78,1.02,3.85-1.73,4.48-6.64,1.15-9.48-.66-.56-1.55-.86-2.33-1.29-.21,.82-.51,1.63-.6,2.47-.11,.9-.02,1.82-.02,2.73Z"/></g></g></svg>