<svg id="Layer_2" xmlns="http://www.w3.org/2000/svg" viewBox="0 0 176.51 100.73"><defs><style>.cls-1{fill:#fff;}</style></defs><g id="Layer_1-2"><g><path d="M120.78,45.67c0,.5-.15,1.06,.03,1.49,.49,1.16,1.12,2.26,1.69,3.39,.99-.52,2.13-.86,2.95-1.58,2.25-1.98,4.5-3.99,6.49-6.22,4.14-4.62,9.16-7.6,15.19-9.06,4.91-1.19,9.47-3.17,13.13-6.84,.36-.36,1.08-.37,1.64-.55,.09,.62,.4,1.31,.22,1.84-2.09,6.26-6.38,10.49-12.53,12.66-5.17,1.83-10.48,3.3-15.72,4.92-.47,.15-.98,.2-1.47,.29-2.07,.4-2.57,1.51-2.08,3.59,1.42,5.99,2.62,12.03,3.93,18.05,.71,3.25,1.55,6.48,2.22,9.74,1.07,5.22,.46,6.19-4.62,7.3-15.28,3.36-30.57,6.67-45.85,10.01-8.45,1.85-16.9,3.74-25.35,5.56-4.95,1.07-5.74,.53-6.84-4.44-1.98-8.94-3.92-17.88-5.9-26.82-.89-4.03-.91-4.01-4.78-3.44-4.61,.68-9.22,1.4-13.84,1.98-5.94,.75-11.67,.21-16.66-3.54-1.05-.79-2.03-1.72-2.88-2.72-.35-.41-.26-1.17-.38-1.78,.61,.02,1.27-.11,1.82,.08,4.87,1.71,9.78,1.54,14.79,.65,5.49-.97,10.9-.8,16.17,1.48,3.2,1.38,6.56,2.42,9.91,3.42,.95,.28,2.6,.24,3.06-.33,.54-.68,.33-2.15,.1-3.21-.35-1.62-1-3.18-1.52-4.77,1.61-.41,3.2-.87,4.82-1.23,19.51-4.28,39.02-8.55,58.53-12.81,3.76-.82,3.77-.78,3.74,2.88Zm-50.96,48.01c.62-.14,.78-.17,.95-.21,16.26-3.56,32.51-7.14,48.78-10.67,1.78-.39,2.4-1.28,2.5-3.08,.18-3.1,1.18-6.33,3.98-7.68,4.28-2.06,4.07-4.91,2.84-8.52-.53-1.57-.81-3.23-1.05-4.88-.29-1.97-1.21-2.84-3.3-2.82-3.39,.03-6.49-1.36-7.91-4.37-1.61-3.42-3.76-3.59-6.76-2.6-1.26,.42-2.58,.63-3.88,.91-13.49,2.96-26.98,5.98-40.5,8.8-2.78,.58-4.53,1.29-4.44,4.63,.07,2.78-1.36,5.5-3.82,6.64-4.12,1.9-3.92,4.65-2.76,8.13,.63,1.88,.89,3.89,1.27,5.85,.26,1.35,1,1.99,2.39,2,4.6,.05,7.91,2.08,9.88,6.33,.34,.73,1.37,1.14,1.85,1.51Z"/><path d="M21.58,32.09c9.32,.38,15.67,3.3,19.88,9.78,3.72,5.72,7.03,11.7,10.47,17.6,.27,.46,.15,1.16,.22,1.74-.44-.19-.92-.32-1.31-.58-3.3-2.25-6.69-4.39-9.85-6.83-5.74-4.42-12.1-5.92-19.25-5.11-3.43,.38-6.97,.38-10.4-.01-3.71-.43-6.94-2.35-9.59-5-2.78-2.78-2.2-6.5,1.47-7.5,6.57-1.78,13.29-2.99,18.36-4.09Z"/><path d="M122.97,44.49c.71-7.13,1.27-13.26,1.93-19.36,1.05-9.6,7.41-16.99,16.84-19.38,4.82-1.22,9.74-2.1,14.58-3.25,2.17-.51,3.93-.15,5.32,1.63,1.3,1.68,.91,3.42,.12,5.17-2.54,5.63-6.87,9.26-12.61,11.31-2.81,1-5.71,1.81-8.39,3.08-3.67,1.74-6.52,4.54-8.62,8.05-2.47,4.13-4.9,8.29-7.4,12.41-.41,.67-1.08,1.18-1.63,1.76-.08-.82-.15-1.63-.13-1.42Z"/><path d="M127.91,43.97c3.58-9.35,8.1-17.87,18.82-20.71,5.45-1.45,10.16-4.03,13.82-8.4,.39-.46,1.35-1.08,1.56-.94,.61,.43,1.37,1.22,1.36,1.86-.02,1.44-.2,3-.78,4.3-1.91,4.24-5.13,7.3-9.24,9.42-.74,.38-1.48,.83-2.28,.99-9.24,1.91-16.92,6.56-23.37,13.34l.12,.14Z"/><path d="M46.76,60.79c-1.91-.44-3.91-.66-5.71-1.38-4.47-1.79-9.02-1.86-13.7-1.27-3.28,.42-6.6,.74-9.9,.74-4.47,0-8.41-1.75-11.77-4.66-.96-.83-1.74-1.99-2.29-3.15-.29-.61-.14-1.74,.28-2.25,.29-.35,1.51-.31,2.09,0,5.46,2.82,11.23,2.68,17.03,1.74,5.55-.9,10.58,.28,15.11,3.41,3.06,2.12,5.86,4.6,8.77,6.93l.09-.1Z"/><path d="M17.12,78.04c-7.26-.14-13.84-5.01-15.14-10.83-.13-.56,.19-1.23,.3-1.84,.46,.42,1.13,.75,1.34,1.26,2.85,7.03,7.99,10.28,15.57,9.69,.38-.03,.8,.4,1.2,.62-.31,.31-.57,.82-.93,.88-.97,.18-1.97,.18-2.35,.21Z"/><path d="M118.28,16.71c-.1-6.85,4.6-13.41,10.85-15.17,.55-.15,1.2,.06,1.81,.11-.44,.51-.77,1.26-1.33,1.49-6.77,2.84-9.91,7.9-9.54,15.22,.03,.54-.41,1.11-.63,1.66-.31-.49-.72-.95-.9-1.48-.2-.62-.2-1.3-.27-1.83Z"/><path d="M172.25,32c-.39,6.95-4.65,12.85-10.3,14.65-.72,.23-1.57,.03-2.36,.03,.46-.52,.81-1.28,1.39-1.52,6.69-2.73,9.63-7.8,9.53-14.87,0-.59,.34-1.18,.53-1.77,.33,.52,.79,1.01,.95,1.58,.22,.78,.22,1.63,.26,1.9Z"/><path d="M45.58,35.4c-.15,.28-.24,.74-.44,.79-.24,.06-.7-.16-.83-.39-.42-.7-.75-1.47-1.1-2.22-2.48-5.36-6.8-7.99-12.56-8.5-.5-.04-1.02,.07-1.49-.03-.6-.13-1.17-.4-1.75-.61,.5-.28,.99-.8,1.49-.81,1.82,0,3.72-.12,5.46,.31,5.6,1.4,9.23,5.05,11.11,10.47,.11,.3,.08,.65,.12,.98Z"/><path d="M176.51,36.68c-.6,5.05-2.77,9.28-7.87,11.47-.77,.33-1.78,.08-2.68,.09,.57-.51,1.06-1.17,1.72-1.5,4.54-2.31,6.97-5.89,6.96-11.07,0-.6,.56-1.21,.86-1.81,.3,.54,.64,1.06,.89,1.63,.12,.29,.07,.65,.12,1.19Z"/><path d="M12.48,82.43c-5.41,.09-11.3-4.29-12.32-9.22-.07-.34,.32-.8,.58-1.14,.04-.05,.58,.17,.78,.38,.22,.22,.34,.56,.48,.86,2.21,4.94,6.05,7.3,11.42,7.34,.54,0,1.07,.42,1.61,.65-.52,.34-1.02,.73-1.57,1.01-.28,.14-.65,.09-.98,.12Z"/><path d="M34.92,19.14c5.48,.04,10.77,3.9,12.16,8.81,.13,.46-.26,1.07-.41,1.61-.35-.27-.87-.47-1.02-.82-2.29-5.25-6.21-7.92-11.99-7.8-.45,0-.91-.29-1.37-.44,.46-.39,.88-.88,1.41-1.15,.41-.21,.96-.16,1.23-.2Z"/><path d="M114.04,12.55c-.15-5.42,3.51-10.88,8.19-12.48,.63-.22,1.46,.15,2.19,.24-.46,.43-.85,1.01-1.4,1.25-4.75,2.15-7.03,5.86-7.21,11.01-.02,.59-.59,1.16-.9,1.74l-.88-1.76Z"/><path d="M46.67,60.9l1.3,.26-1.21-.36-.09,.1Z"/><path d="M127.79,43.83l-.32,.35,.44-.22-.12-.14Z"/><path class="cls-1" d="M69.82,93.69c-.48-.37-1.51-.78-1.85-1.51-1.97-4.25-5.28-6.28-9.88-6.33-1.39-.02-2.13-.65-2.39-2-.38-1.96-.64-3.97-1.27-5.85-1.16-3.48-1.36-6.23,2.76-8.13,2.47-1.14,3.89-3.86,3.82-6.64-.08-3.34,1.66-4.05,4.44-4.63,13.52-2.82,27-5.85,40.5-8.8,1.3-.28,2.63-.49,3.88-.91,3-1,5.15-.83,6.76,2.6,1.42,3.01,4.52,4.4,7.91,4.37,2.1-.02,3.02,.85,3.3,2.82,.24,1.64,.51,3.31,1.05,4.88,1.23,3.61,1.44,6.46-2.84,8.52-2.8,1.35-3.8,4.58-3.98,7.68-.1,1.8-.72,2.69-2.5,3.08-16.27,3.52-32.52,7.1-48.78,10.67-.16,.04-.33,.07-.95,.21Zm56.18-26.31c-.31-1.71-.54-2.85-.73-4-.46-2.77-1.16-4.9-4.84-4.93-2.89-.02-5.37-1.87-6.75-4.55-1.07-2.08-2.22-2.84-4.71-2.28-13.77,3.14-27.57,6.13-41.39,9.07-1.93,.41-2.76,1.14-2.93,3.21-.29,3.53-2.16,6.4-5.31,7.96-2.66,1.32-3.17,3.07-2.44,5.62,.32,1.12,.64,2.24,.82,3.39,.28,1.76,1.09,2.48,3.01,2.48,3.91,0,7.14,1.71,9.18,5.07,1.17,1.93,2.4,2.27,4.52,1.74,5.15-1.3,10.37-2.32,15.57-3.46,8.44-1.85,16.88-3.68,25.31-5.55,1.55-.34,3.37-.32,3.34-2.81-.05-4.02,1.95-6.89,5.41-8.88,.87-.5,1.44-1.52,1.94-2.08Z"/><path d="M126,67.38c-.5,.56-1.07,1.58-1.94,2.08-3.47,2-5.46,4.86-5.41,8.88,.03,2.49-1.79,2.47-3.34,2.81-8.43,1.88-16.87,3.71-25.31,5.55-5.19,1.14-10.42,2.16-15.57,3.46-2.11,.53-3.35,.2-4.52-1.74-2.04-3.37-5.26-5.07-9.18-5.07-1.91,0-2.73-.72-3.01-2.48-.18-1.14-.5-2.27-.82-3.39-.74-2.56-.22-4.31,2.44-5.62,3.14-1.56,5.02-4.43,5.31-7.96,.17-2.07,1-2.79,2.93-3.21,13.81-2.94,27.62-5.92,41.39-9.07,2.48-.57,3.64,.2,4.71,2.28,1.38,2.68,3.86,4.53,6.75,4.55,3.68,.03,4.38,2.16,4.84,4.93,.19,1.15,.42,2.29,.73,4Zm-67.4,8.46c.07,3.71,1.06,5.52,3.36,5.79,4.07,.49,7.12,2.41,9.56,5.62,.48,.63,1.67,1.18,2.4,1.05,4.08-.72,8.13-1.64,12.17-2.55,1.49-.34,1.3-1.05,.38-2.02-1.6-1.66-3.45-3.21-4.56-5.16-3.06-5.38-3.22-11.04-.64-16.71,.66-1.44,.44-2.35-1.31-2.01-3.74,.72-7.49,1.47-11.17,2.46-.9,.24-1.98,1.32-2.22,2.22-1.07,4.07-3.2,7.2-6.83,9.41-.69,.42-.94,1.54-1.15,1.9Zm65.24-9.34c.05-3.89-1.04-5.42-4.23-6.27-3.21-.85-5.81-2.51-7.53-5.34-.84-1.39-1.82-1.68-3.31-1.34-3.73,.85-7.49,1.55-11.21,2.39-1.77,.4-1.6,1.15-.41,2.32,7.15,7.03,8.45,13.1,4.64,21.94-.69,1.61-.56,2.15,1.24,1.78,3.74-.77,7.48-1.57,11.22-2.33,1.68-.34,2.43-1.27,2.71-3.03,.53-3.41,2.21-6.2,5.17-8.19,.85-.57,1.4-1.57,1.72-1.94Zm-21.75,5.33c.12-4.28-1.56-8.46-5.34-11.69-4.77-4.07-10.89-3.01-13.88,2.5-2.57,4.73-2.29,9.58,.02,14.33,2.55,5.23,7.43,7.97,11.99,6.83,4.2-1.05,7.16-5.7,7.21-11.98Z"/><path class="cls-1" d="M58.6,75.83c.2-.36,.46-1.48,1.15-1.9,3.62-2.2,5.76-5.34,6.83-9.41,.24-.9,1.32-1.98,2.22-2.22,3.68-.99,7.42-1.74,11.17-2.46,1.75-.34,1.97,.57,1.31,2.01-2.58,5.67-2.42,11.33,.64,16.71,1.11,1.95,2.96,3.51,4.56,5.16,.93,.96,1.11,1.68-.38,2.02-4.04,.91-8.09,1.83-12.17,2.55-.74,.13-1.93-.43-2.4-1.05-2.44-3.21-5.49-5.13-9.56-5.62-2.3-.28-3.28-2.09-3.36-5.79Z"/><path class="cls-1" d="M123.84,66.5c-.32,.37-.87,1.37-1.72,1.94-2.96,1.99-4.64,4.77-5.17,8.19-.27,1.76-1.02,2.69-2.71,3.03-3.74,.76-7.48,1.55-11.22,2.33-1.8,.37-1.93-.17-1.24-1.78,3.8-8.85,2.51-14.91-4.64-21.94-1.19-1.17-1.36-1.92,.41-2.32,3.73-.84,7.49-1.54,11.21-2.39,1.49-.34,2.47-.05,3.31,1.34,1.71,2.83,4.32,4.49,7.53,5.34,3.2,.85,4.28,2.38,4.23,6.27Z"/><path class="cls-1" d="M102.09,71.83c-.05,6.28-3.01,10.93-7.21,11.98-4.56,1.14-9.45-1.6-11.99-6.83-2.31-4.75-2.59-9.6-.02-14.33,2.99-5.51,9.12-6.57,13.88-2.5,3.78,3.23,5.47,7.4,5.34,11.69Zm-19.44-2.88c-.06,5.08,1.43,8.68,4.62,11.44,4.29,3.71,9.34,2.74,12.13-2.19,2.58-4.57,1.63-11.63-2.23-15.76-2.12-2.27-4.62-3.85-7.92-3.09-3.45,.8-5.24,3.35-6.23,6.5-.39,1.24-.32,2.62-.37,3.09Z"/><path d="M82.65,68.94c.05-.47-.02-1.85,.37-3.09,.98-3.15,2.77-5.7,6.23-6.5,3.3-.76,5.81,.82,7.92,3.09,3.85,4.13,4.8,11.19,2.23,15.76-2.78,4.93-7.84,5.9-12.13,2.19-3.19-2.76-4.68-6.36-4.62-11.44Zm10.45,10.63c.3-.07,.76-.05,.87-.24,1.05-1.83,2.33-3.6,2.98-5.58,.56-1.72-.4-3.24-2.19-3.97-.77-.31-1.62-.43-2.37-.76-.84-.37-1.6-.89-2.4-1.35,.71-.53,1.41-1.09,2.15-1.58,.73-.49,1.51-.92,2.26-1.38-.8-.44-1.75-.74-2.39-1.35-1.99-1.9-2.97-1.2-3.67,1.12-.17,.57-.95,.93-1.29,1.49-1.5,2.48-.85,4.57,1.8,5.61,1.07,.42,2.29,.46,3.37,.87,.52,.2,1.18,.85,1.19,1.32,.01,.46-.63,1.04-1.11,1.41-1.22,.94-3.82-.65-3.94,1.75-.03,.62,2.56,1.37,3.94,2.07,.29,.15,.53,.38,.8,.57Z"/><path class="cls-1" d="M93.09,79.57c-.27-.19-.51-.43-.8-.57-1.38-.71-3.97-1.45-3.94-2.07,.12-2.41,2.72-.82,3.94-1.75,.48-.37,1.12-.94,1.11-1.41-.01-.46-.67-1.12-1.19-1.32-1.08-.41-2.3-.45-3.37-.87-2.66-1.05-3.3-3.13-1.8-5.61,.34-.56,1.12-.92,1.29-1.49,.7-2.31,1.68-3.02,3.67-1.12,.64,.61,1.58,.91,2.39,1.35-.76,.46-1.53,.89-2.26,1.38-.74,.49-1.43,1.05-2.15,1.58,.8,.46,1.57,.98,2.4,1.35,.75,.34,1.6,.45,2.37,.76,1.78,.73,2.75,2.26,2.19,3.97-.64,1.97-1.92,3.75-2.98,5.58-.11,.18-.57,.16-.87,.24Z"/></g></g></svg>
